<svg width="21" height="21" viewBox="0 0 21 21" fill="none" xmlns="http://www.w3.org/2000/svg">
<path d="M20.8333 10.4167C20.8333 10.9692 20.6138 11.4991 20.2231 11.8898C19.8324 12.2805 19.3025 12.5 18.75 12.5H12.5V18.75C12.5 19.3025 12.2805 19.8324 11.8898 20.2231C11.4991 20.6138 10.9692 20.8333 10.4167 20.8333C9.86413 20.8333 9.33423 20.6138 8.94353 20.2231C8.55283 19.8324 8.33333 19.3025 8.33333 18.75V12.5H2.08333C1.5308 12.5 1.0009 12.2805 0.610195 11.8898C0.219494 11.4991 0 10.9692 0 10.4167C0 9.86413 0.219494 9.33423 0.610195 8.94353C1.0009 8.55283 1.5308 8.33333 2.08333 8.33333H8.33333V2.08333C8.33333 1.5308 8.55283 1.0009 8.94353 0.610195C9.33423 0.219494 9.86413 0 10.4167 0C10.9692 0 11.4991 0.219494 11.8898 0.610195C12.2805 1.0009 12.5 1.5308 12.5 2.08333V8.33333H18.75C19.3025 8.33333 19.8324 8.55283 20.2231 8.94353C20.6138 9.33423 20.8333 9.86413 20.8333 10.4167Z" fill="#374957"/>
</svg>
